# xmcd
#
# Track frame offsets: 
#        150
#        13473
#        30417
#        39241
#        56908
#        70781
#        81193
#        95573
#        112678
#        124963
#        131822
#        140809
#        153195
#        167686
#        180899
#        198361
#        215680
#        231349
#        247630
#        264630
#
# Disc length: 3746 seconds
#
# Revision: 1
# Processed by: cddbd v1.5.2PL0 Copyright (c) Steve Scherf et al.
# Submitted via: ExactAudioCopy v0.95b4
#
DISCID=140ea014
DTITLE=Irish Folk Festival - 2007 Irish Folk Festival [CD 3)
DYEAR=2007
DGENRE=Celtic
TTITLE0=The Blarney Lads - Molly Malone
TTITLE1=Waxies Dargle - Lannigan's Ball
TTITLE2=The Blarney Lads - Muirsheen Durkin
TTITLE3=Waxies Dargle - Cod Liver Oil
TTITLE4=Waxies Dargle - Dirty Old Town
TTITLE5=The Blarney Lads - Quare Bundle Rye
TTITLE6=The Blarney Lads - Peggy Gordon
TTITLE7=Waxies Dargle - Tipping It Up To Nancy_Swallow's Tail
TTITLE8=The Blackwater Boys - Spanish Lady
TTITLE9=The Blarney Lads - Dicey Reilly
TTITLE10=The Blarney Lads - Crooked Jack
TTITLE11=Waxies Dargle - Paddle Me Own Canoe
TTITLE12=The Blarney Lads - I'm A Rover
TTITLE13=The Blarney Lads - Poor Paddy Works On The Railway
TTITLE14=Waxies Dargle - Irish Rover_Rakes Of Mallow
TTITLE15=The Blackwater Boys - Home Boys Home
TTITLE16=The Blackwater Boys - Whiskey In A Jar
TTITLE17=Waxies Dargle - Finnegan's Wake
TTITLE18=The Blackwater Boys - Black Velvet Band
TTITLE19=Waxies Dargle - Maid Behind The Bar_Gravel Walk
EXTD=
EXTT0=
EXTT1=
EXTT2=
EXTT3=
EXTT4=
EXTT5=
EXTT6=
EXTT7=
EXTT8=
EXTT9=
EXTT10=
EXTT11=
EXTT12=
EXTT13=
EXTT14=
EXTT15=
EXTT16=
EXTT17=
EXTT18=
EXTT19=
PLAYORDER=
